<svg width="56" height="56" viewBox="0 0 56 56" fill="none" xmlns="http://www.w3.org/2000/svg">
<rect width="56" height="56" rx="28" fill="black"/>
<path fill-rule="evenodd" clip-rule="evenodd" d="M29.7731 21.0252L26.0933 20.9602C25.0299 20.9602 24.8065 21.144 23.8744 22.7841C23.3047 23.7875 22.2712 25.1705 21.5781 25.8581C20.3736 27.0528 17.0423 28.8944 14.3982 29.8276C11.6937 30.7819 6.24008 33.7037 5.152 34.7814C4.23867 35.6857 4 36.2037 4 37.2796C4 38.9802 4.37415 39.2182 5.81381 38.432C6.58783 38.0092 8.00977 37.7542 10.2498 37.6361C12.9905 37.4916 13.5655 37.363 13.6589 36.8725C13.752 36.383 13.4366 36.2645 11.8111 36.1776L9.85068 36.0727L15.1761 33.0665C18.1054 31.4135 21.0882 29.7328 21.8046 29.3318C22.5213 28.9313 23.6938 28.2754 24.4101 27.8741C25.1268 27.4732 26.2264 26.8318 26.8538 26.4486L27.995 25.7528L31.1964 27.6417C32.9574 28.6804 35.4924 30.1219 36.8299 30.8441C38.1674 31.5668 40.7396 33.0388 42.5458 34.1154L45.8298 36.0727L44.0223 36.1776C42.4986 36.2662 42.2147 36.3889 42.2147 36.9593C42.2147 37.5829 42.476 37.6361 45.5484 37.6361C48.3638 37.6361 49.0392 37.748 49.8928 38.3559C51.4012 39.4298 52.1262 39.1303 52.0689 37.4565C52.0297 36.3006 51.7774 35.8622 50.4722 34.6806C49.5759 33.8691 47.6172 32.7122 45.8291 31.9381C36.1007 27.7264 33.9197 26.3239 31.9992 23.0447C31.0592 21.4393 30.7031 21.1165 29.7731 21.0252ZM28.4717 23.3806C29.1595 23.3695 29.1554 23.3428 28.3668 22.6858C27.4833 21.9496 27.6264 21.8816 29.3353 22.2231C30.2038 22.3968 30.6134 22.7855 31.2582 24.047C32.8108 27.0841 34.8876 28.5738 40.9988 31.0342C46.7963 33.3681 50.8575 35.8191 50.3333 36.6675C50.2245 36.8436 50.4246 37.2248 50.7783 37.5148C51.6847 38.2587 47.4456 35.9622 41.5199 32.4992C38.7493 30.8803 34.578 28.5575 32.2508 27.3373L28.0187 25.1194L23.7393 27.337C21.3853 28.5568 16.2548 31.3566 12.3378 33.5588C8.42075 35.7614 5.15582 37.5065 5.08217 37.437C4.79209 37.1629 6.18137 35.4859 7.47407 34.5493C8.22481 34.0056 11.1503 32.5885 13.9754 31.4004C16.8005 30.2122 19.4662 29.0692 19.8991 28.8604C21.1007 28.2799 23.723 25.5617 24.7166 23.866C25.6712 22.2373 26.0315 22.0872 27.082 22.8821C27.4531 23.1625 28.0784 23.3869 28.4717 23.3806Z" fill="white"/>
<path d="M25.2342 35.6264L23.6911 35.642L23.7284 36.8994C23.7709 38.328 23.8742 40.8597 23.8906 40.8715C23.8965 40.8759 24.7289 40.894 25.7404 40.9119L27.5793 40.9443V40.5874V40.2305L26.7636 40.2595C26.3148 40.2754 25.771 40.2998 25.5548 40.3136L25.1618 40.3387L25.1262 39.9169C25.1065 39.685 25.0905 39.2725 25.0905 39.0004V38.5056L25.9893 38.5401C26.4836 38.5592 27.0187 38.5883 27.1784 38.6048L27.4687 38.6349V38.2471V37.8594L26.7636 37.8845C26.3757 37.8984 25.8406 37.9201 25.5744 37.9328L25.0905 37.956V37.0938V36.2316L26.3487 36.2701L27.607 36.3085L27.5885 35.9467L27.5699 35.5849L27.1737 35.5979C26.9557 35.605 26.0829 35.6178 25.2342 35.6264Z" fill="white"/>
<path fill-rule="evenodd" clip-rule="evenodd" d="M19.8916 35.5629C19.7852 35.5748 19.5425 35.5991 19.3524 35.6168L19.0067 35.6491V38.2654V40.8817L19.1312 40.915C19.1996 40.9333 19.4892 40.9487 19.7748 40.9491L20.294 40.9499L20.2671 39.6944L20.2403 38.439L20.5259 38.7459C20.8624 39.1074 21.2517 39.7525 21.5637 40.4656C21.687 40.7472 21.7951 40.9863 21.8041 40.9971C21.8269 41.0244 22.995 40.8887 23.1133 40.8449C23.1979 40.8136 23.1675 40.7326 22.8734 40.2036C22.6882 39.8706 22.35 39.3155 22.1219 38.9699C21.8937 38.6244 21.7154 38.3371 21.7257 38.3315C21.736 38.3258 21.8822 38.256 22.0505 38.1763C22.4723 37.9767 22.6791 37.7887 22.8462 37.4533C23.2733 36.5963 22.6948 35.8701 21.4073 35.6469C21.0202 35.5798 20.165 35.5325 19.8916 35.5629ZM20.2232 37.7635C20.2231 37.5235 20.2068 37.0472 20.1871 36.7049L20.1512 36.0827H20.3746C20.8771 36.0827 21.4916 36.4198 21.6905 36.8046C21.8134 37.042 21.7941 37.4158 21.6476 37.637C21.4796 37.8909 20.9901 38.1303 20.5595 38.1693L20.2235 38.1998L20.2232 37.7635Z" fill="white"/>
<path fill-rule="evenodd" clip-rule="evenodd" d="M14.5821 35.5708C14.3844 35.5819 14.2069 35.6081 14.1876 35.6294C14.1683 35.6505 14.1349 36.8595 14.1135 38.3159L14.0745 40.9638L15.0611 40.9343C16.1294 40.9022 16.4572 40.8401 17.0543 40.5566C17.4813 40.3539 17.9419 39.9387 18.1365 39.5812C18.3306 39.2244 18.4518 38.6958 18.4528 38.201C18.4561 36.6287 17.5872 35.7707 15.8069 35.5883C15.4918 35.556 15.1683 35.5345 15.0879 35.5403C15.0074 35.5462 14.7799 35.5599 14.5821 35.5708ZM15.3196 39.5335C15.3397 39.0501 15.3562 38.0737 15.3563 37.3638L15.3564 36.073L15.5915 36.1108C16.1685 36.2037 16.7404 36.5995 16.9872 37.0767C17.1286 37.3502 17.2348 37.9425 17.2359 38.4632C17.2384 39.7075 16.7513 40.3182 15.7027 40.3856L15.2831 40.4125L15.3196 39.5335Z" fill="white"/>
<path d="M29.7723 35.5858C28.7173 35.7702 28.0028 36.5698 28.1985 37.3471C28.3062 37.7748 28.6237 38.0311 29.7774 38.6217C30.9064 39.1995 31.1743 39.4179 31.1743 39.76C31.1743 39.8925 31.1263 40.0063 31.0204 40.1248C30.6332 40.5582 29.7653 40.3025 28.8686 39.4909L28.5817 39.2312L28.2187 39.6565C28.0192 39.8904 27.8559 40.1091 27.856 40.1425C27.8561 40.2244 28.317 40.5304 28.6573 40.6745C29.5302 41.0442 30.5861 41.0381 31.2296 40.6596C31.7891 40.3305 32.1693 39.7647 32.1681 39.263C32.1664 38.5756 31.7721 38.1646 30.4961 37.52C30.0022 37.2705 29.5174 37.0057 29.4187 36.9316C29.0886 36.6834 29.1259 36.3132 29.4965 36.1583C29.8674 36.0034 30.3326 36.1826 31.0176 36.7444L31.4232 37.077L31.7689 36.7118C31.959 36.511 32.1145 36.316 32.1145 36.2786C32.1145 36.1811 31.9637 36.0614 31.6298 35.8941C31.0993 35.6283 30.294 35.4946 29.7723 35.5858Z" fill="white"/>
<path d="M34.37 35.5866C34.0418 35.6419 33.552 35.8641 33.2756 36.0831C32.797 36.4621 32.6352 37.1817 32.9303 37.6187C33.1587 37.9569 33.4172 38.1346 34.4383 38.655C35.4918 39.192 35.7648 39.4203 35.7648 39.7646C35.7648 40.0327 35.6801 40.1704 35.458 40.2632C34.9646 40.4693 34.3168 40.2202 33.488 39.5059L33.1745 39.2357L32.8039 39.6802C32.4448 40.1106 32.4363 40.128 32.5309 40.2326C32.8443 40.5789 33.7035 40.894 34.4456 40.9348C35.1028 40.9709 35.5857 40.844 36.0465 40.514C36.5447 40.1572 36.7603 39.7752 36.7603 39.2492C36.7603 38.5444 36.4021 38.1836 34.9888 37.4646C33.7926 36.856 33.6273 36.6895 33.8628 36.3301C33.9861 36.142 34.2973 36.0556 34.579 36.1315C34.8595 36.207 35.3728 36.5156 35.7409 36.8302L36.0276 37.0751L36.3293 36.7586C36.8025 36.2625 36.8085 36.2358 36.4923 36.0329C36.1595 35.8193 35.7271 35.6687 35.2217 35.5903C34.7904 35.5233 34.7468 35.5232 34.37 35.5866Z" fill="white"/>
<path fill-rule="evenodd" clip-rule="evenodd" d="M38.3089 35.5632C38.2025 35.5749 37.9558 35.5995 37.7609 35.6177L37.4063 35.651L37.4443 38.2566C37.4729 40.2149 37.4992 40.8729 37.55 40.9052C37.5872 40.9289 37.8619 40.9485 38.1607 40.949L38.7037 40.9499L38.6861 39.7108C38.6661 38.3045 38.6572 38.3236 39.0759 38.8663C39.3757 39.2549 39.7333 39.8847 39.9996 40.4933C40.1162 40.7596 40.2174 40.9863 40.2246 40.9971C40.2402 41.0202 41.3904 40.899 41.5296 40.8596C41.6154 40.8353 41.6073 40.7963 41.453 40.4906C41.2345 40.0579 40.8715 39.454 40.4574 38.8346C40.2796 38.5686 40.1341 38.3424 40.1341 38.3318C40.1341 38.3213 40.2312 38.2807 40.3499 38.2415C40.4686 38.2024 40.6863 38.0802 40.8338 37.97C41.4057 37.5426 41.5763 36.7818 41.2042 36.3186C40.991 36.0533 40.4402 35.7709 39.9405 35.6709C39.5249 35.5877 38.6254 35.5283 38.3089 35.5632ZM38.6408 37.6476C38.6408 37.3438 38.6244 36.8636 38.6042 36.5805L38.5677 36.0657L38.9076 36.0966C39.4501 36.1458 40.001 36.4793 40.1389 36.8421C40.2303 37.0825 40.1973 37.4371 40.0649 37.637C39.8969 37.8909 39.4074 38.1303 38.9768 38.1693L38.6408 38.1998V37.6476Z" fill="white"/>
<path d="M24.694 28.9563C24.5919 28.9634 24.3764 28.98 24.2151 28.9933L23.9218 29.0174L23.8933 29.9946C23.8777 30.5321 23.8467 31.4161 23.8244 31.9591C23.792 32.7499 23.7944 32.9532 23.8366 32.98C23.8656 32.9984 23.9954 33.0137 24.125 33.0141L24.3608 33.0147L24.3419 32.7567C24.3095 32.3149 24.2319 29.9964 24.2489 29.9794C24.2577 29.9705 24.365 30.2087 24.4874 30.5088C24.6097 30.8089 24.8352 31.3329 24.9886 31.6734L25.2675 32.2924L25.4141 32.2904C25.4947 32.2892 25.6773 32.2846 25.8198 32.2801L26.079 32.2718L26.32 31.725C26.4526 31.4242 26.6627 30.9181 26.7868 30.6004C26.911 30.2826 27.0227 30.0133 27.0351 30.0019C27.0474 29.9906 27.0448 30.6638 27.0291 31.498L27.0007 33.0147L27.4466 33.0141C27.6918 33.0137 27.911 32.9998 27.9337 32.9831C27.9605 32.9634 27.9709 32.2625 27.9635 30.9849L27.952 29.0171L27.7365 28.9909C27.618 28.9765 27.3841 28.9706 27.2167 28.9778L26.9124 28.9908L26.6555 29.6718C26.3906 30.3742 26.1074 31.0575 25.9645 31.3391L25.8829 31.5L25.7211 31.1367C25.5468 30.7453 25.1328 29.6605 24.9847 29.2075C24.9346 29.0542 24.8905 28.9322 24.8867 28.9361C24.8829 28.9401 24.7962 28.9491 24.694 28.9563Z" fill="white"/>
<path d="M28.8416 29.0358C28.2981 29.1315 28.3093 29.0906 28.677 29.6325C28.8535 29.8924 29.1836 30.355 29.4107 30.6604L29.8235 31.2158L29.795 32.0895C29.7693 32.8748 29.7733 32.9657 29.8336 32.9889C29.8705 33.0031 30.1114 33.0147 30.3688 33.0147H30.8369L30.8201 32.7155C30.7799 31.9941 30.7697 31.1568 30.8009 31.1375C30.9015 31.0753 32.2333 29.1497 32.1993 29.1157C32.189 29.1054 32.0652 29.07 31.9242 29.0371L31.6679 28.9773L31.5587 29.1698C31.3042 29.6186 31.0214 30.0888 30.7893 30.4491L30.5412 30.8345L30.1977 30.3086C30.0087 30.0193 29.7506 29.5998 29.6241 29.3764C29.3629 28.915 29.4101 28.9356 28.8416 29.0358Z" fill="white"/>
<path d="M29.3423 14.8649C30.1167 15.7206 30.0562 17.68 29.2224 18.7458C28.8486 19.2235 28.5394 19.9663 28.5353 20.3961C28.5287 21.0551 28.7132 21.1777 29.7106 21.1777L26.0308 21.2427C26.8243 21.1646 27.138 20.9568 27.138 20.5093C27.138 20.1661 27.5288 19.309 28.0065 18.6051C28.9609 17.1992 29.096 16.3265 28.4582 15.6886C27.8207 15.0511 27.2474 15.1842 26.3206 16.1837C25.8554 16.6853 25.302 16.9886 25.0907 16.858C24.521 16.5061 24.6138 16.168 25.558 15.1487C26.5898 14.0356 28.4644 13.8949 29.3423 14.8649Z" fill="white"/>
</svg>
