<svg width="100" height="56" viewBox="0 0 100 56" fill="none" xmlns="http://www.w3.org/2000/svg">
<path fill-rule="evenodd" clip-rule="evenodd" d="M53.4538 14.57L45.822 14.4353C43.6165 14.4353 43.1532 14.8164 41.22 18.2181C40.0383 20.2989 37.8948 23.1674 36.4573 24.5933C33.9592 27.0712 27.0501 30.8907 21.5661 32.826C15.9568 34.8053 4.64596 40.865 2.38927 43.1001C0.494999 44.9756 0 46.0499 0 48.2814C0 51.8084 0.776004 52.3019 3.76187 50.6714C5.36721 49.7945 8.31634 49.2656 12.9623 49.0206C18.6466 48.7209 19.839 48.4543 20.0328 47.4369C20.2259 46.4217 19.5717 46.176 16.2004 45.9959L12.1344 45.7783L23.1794 39.5435C29.2549 36.1152 35.4413 32.6293 36.9271 31.7978C38.4135 30.9671 40.8453 29.6067 42.331 28.7745C43.8175 27.943 46.098 26.6129 47.3992 25.8182L49.7662 24.375L56.4058 28.2925C60.0582 30.4469 65.3159 33.4363 68.0899 34.9343C70.864 36.433 76.1988 39.4859 79.9448 41.7188L86.7559 45.7783L83.007 45.9959C79.8468 46.1796 79.2581 46.4339 79.2581 47.6171C79.2581 48.9104 79.8 49.0206 86.1723 49.0206C92.0115 49.0206 93.4122 49.2527 95.1825 50.5136C98.3111 52.7407 99.8148 52.1196 99.6959 48.6481C99.6145 46.2509 99.0914 45.3416 96.3844 42.8911C94.5254 41.2079 90.4631 38.8086 86.7545 37.2033C66.5775 28.4683 62.0541 25.5595 58.071 18.7585C56.1212 15.4289 55.3827 14.7595 53.4538 14.57ZM50.7547 19.4552C52.1814 19.4321 52.1727 19.3767 50.5371 18.0141C48.7048 16.4873 49.0017 16.3461 52.546 17.0544C54.3473 17.4147 55.1968 18.2209 56.5341 20.8372C59.7541 27.136 64.0615 30.2257 76.7363 35.3285C88.7605 40.169 97.1834 45.2523 96.0961 47.0118C95.8706 47.3771 96.2856 48.1675 97.0191 48.7692C98.899 50.3118 90.1071 45.5491 77.8171 38.3669C72.0709 35.0092 63.4195 30.1918 58.5926 27.6613L49.8152 23.0614L40.9397 27.6606C36.0574 30.1903 25.4166 35.9971 17.2927 40.5645C9.16872 45.1327 2.3972 48.7519 2.24445 48.6078C1.64281 48.0393 4.5242 44.5613 7.20528 42.6187C8.76235 41.4911 14.8299 38.5521 20.6893 36.0879C26.5486 33.6237 32.0772 31.2531 32.975 30.8201C35.4673 29.6161 40.9058 23.9787 42.9666 20.4618C44.9466 17.084 45.6937 16.7727 47.8726 18.4212C48.6421 19.0027 49.9391 19.4682 50.7547 19.4552Z" fill="white"/>
<path d="M44.04 44.8534L40.8396 44.8858L40.917 47.4936C41.0051 50.4564 41.2194 55.707 41.2533 55.7316C41.2657 55.7406 42.9921 55.7783 45.0899 55.8153L48.9039 55.8825V55.1423V54.4021L47.212 54.4622C46.2813 54.4954 45.1533 54.5458 44.705 54.5745L43.8899 54.6266L43.816 53.7518C43.7753 53.2707 43.742 52.4153 43.742 51.8509V50.8247L45.606 50.8964C46.6313 50.9359 47.7411 50.9962 48.0723 51.0305L48.6745 51.0929V50.2887V49.4846L47.212 49.5366C46.4076 49.5654 45.2978 49.6105 44.7457 49.6369L43.742 49.685V47.8968V46.1086L46.3516 46.1883L48.9613 46.268L48.9228 45.5177L48.8843 44.7674L48.0625 44.7943C47.6105 44.8089 45.8004 44.8356 44.04 44.8534Z" fill="white"/>
<path fill-rule="evenodd" clip-rule="evenodd" d="M32.9594 44.7218C32.7386 44.7464 32.2354 44.7967 31.841 44.8335L31.1241 44.9004V50.3265V55.7527L31.3822 55.8219C31.5242 55.8598 32.1248 55.8917 32.7171 55.8925L33.7939 55.8941L33.7382 53.2904L33.6826 50.6866L34.275 51.3231C34.9729 52.073 35.7804 53.4108 36.4274 54.8899C36.683 55.4737 36.9072 55.9697 36.9259 55.9921C36.9733 56.0488 39.396 55.7673 39.6412 55.6765C39.8167 55.6116 39.7537 55.4436 39.1437 54.3465C38.7597 53.6558 38.0582 52.5045 37.5851 51.7878C37.1118 51.0712 36.7421 50.4753 36.7634 50.4636C36.7847 50.4519 37.0879 50.307 37.4371 50.1417C38.3117 49.7279 38.7407 49.338 39.0874 48.6423C39.9731 46.865 38.7733 45.3589 36.103 44.896C35.3001 44.7567 33.5264 44.6586 32.9594 44.7218ZM33.6471 49.2857C33.6469 48.7879 33.6132 47.8001 33.5723 47.0903L33.4979 45.7998H33.9611C35.0033 45.7998 36.2778 46.4988 36.6904 47.2968C36.9452 47.7894 36.9052 48.5646 36.6014 49.0233C36.2528 49.5498 35.2377 50.0464 34.3447 50.1274L33.6477 50.1906L33.6471 49.2857Z" fill="white"/>
<path fill-rule="evenodd" clip-rule="evenodd" d="M21.9474 44.7382C21.5374 44.761 21.1691 44.8155 21.1291 44.8595C21.0891 44.9035 21.0199 47.4108 20.9755 50.4313L20.8945 55.923L22.9409 55.8618C25.1565 55.7954 25.8364 55.6665 27.0747 55.0786C27.9605 54.658 28.9156 53.797 29.3193 53.0554C29.7219 52.3156 29.9732 51.2192 29.9753 50.193C29.9821 46.9321 28.18 45.1527 24.4875 44.7744C23.8342 44.7074 23.1631 44.6627 22.9963 44.6748C22.8295 44.687 22.3575 44.7155 21.9474 44.7382ZM23.477 52.9567C23.5186 51.954 23.5528 49.9291 23.553 48.4567L23.5534 45.7796L24.0409 45.8581C25.2375 46.0507 26.4237 46.8715 26.9355 47.8613C27.2288 48.4284 27.4492 49.6569 27.4515 50.7368C27.4567 53.3175 26.4464 54.5842 24.2714 54.7238L23.4014 54.7796L23.477 52.9567Z" fill="white"/>
<path d="M53.4521 44.7691C51.264 45.1516 49.7821 46.81 50.1881 48.4221C50.4114 49.3092 51.0699 49.8407 53.4628 51.0655C55.8043 52.264 56.36 52.7168 56.36 53.4264C56.36 53.7011 56.2604 53.9372 56.0408 54.183C55.2376 55.0819 53.4376 54.5516 51.5779 52.8682L50.9828 52.3296L50.2301 53.2117C49.8162 53.6969 49.4776 54.1504 49.4777 54.2197C49.478 54.3895 50.4339 55.0242 51.1397 55.3231C52.9501 56.0898 55.1399 56.0771 56.4747 55.292C57.6351 54.6095 58.4236 53.436 58.421 52.3955C58.4176 50.97 57.5998 50.1176 54.9533 48.7807C53.9289 48.2633 52.9234 47.714 52.7189 47.5603C52.0342 47.0456 52.1115 46.2778 52.8802 45.9566C53.6494 45.6352 54.6142 46.007 56.035 47.172L56.8761 47.8619L57.5931 47.1045C57.9874 46.688 58.31 46.2836 58.31 46.206C58.31 46.0037 57.9972 45.7556 57.3046 45.4085C56.2044 44.8572 54.5341 44.58 53.4521 44.7691Z" fill="white"/>
<path d="M62.9878 44.7709C62.3072 44.8856 61.2914 45.3463 60.7181 45.8005C59.7255 46.5866 59.3899 48.079 60.0019 48.9854C60.4756 49.6867 61.0117 50.0552 63.1296 51.1346C65.3145 52.2484 65.8807 52.7219 65.8807 53.4358C65.8807 53.992 65.7051 54.2774 65.2443 54.47C64.2211 54.8974 62.8776 54.3809 61.1586 52.8993L60.5085 52.339L59.7397 53.2608C58.995 54.1535 58.9773 54.1896 59.1735 54.4065C59.8236 55.1247 61.6054 55.7783 63.1446 55.8628C64.5078 55.9377 65.5093 55.6746 66.465 54.9902C67.4983 54.2502 67.9455 53.4578 67.9455 52.367C67.9455 50.9052 67.2025 50.1569 64.2714 48.6658C61.7902 47.4035 61.4475 47.0583 61.9359 46.3128C62.1916 45.9226 62.8372 45.7436 63.4213 45.9008C64.0032 46.0575 65.0677 46.6976 65.8312 47.35L66.4257 47.8579L67.0516 47.2016C68.0329 46.1726 68.0454 46.1172 67.3896 45.6964C66.6993 45.2534 65.8026 44.9411 64.7544 44.7784C63.8598 44.6396 63.7693 44.6393 62.9878 44.7709Z" fill="white"/>
<path fill-rule="evenodd" clip-rule="evenodd" d="M71.1573 44.7223C70.9365 44.7467 70.4249 44.7976 70.0206 44.8354L69.2852 44.9044L69.3641 50.3084C69.4234 54.3698 69.4779 55.7346 69.5832 55.8016C69.6604 55.8505 70.2303 55.8914 70.8498 55.8924L71.976 55.8941L71.9395 53.3243C71.898 50.4076 71.8797 50.4473 72.7481 51.5728C73.3698 52.3789 74.1114 53.6851 74.6637 54.9472C74.9055 55.4995 75.1155 55.9697 75.1305 55.9921C75.1627 56.04 77.5484 55.7886 77.8371 55.7068C78.0149 55.6565 77.9982 55.5757 77.6782 54.9416C77.2251 54.0442 76.4721 52.7917 75.6133 51.5071C75.2445 50.9555 74.9427 50.4862 74.9427 50.4644C74.9427 50.4426 75.1441 50.3584 75.3903 50.2771C75.6365 50.1959 76.0881 49.9425 76.394 49.7139C77.58 48.8276 77.934 47.2496 77.1622 46.289C76.72 45.7388 75.5776 45.1532 74.5412 44.9457C73.6793 44.773 71.8137 44.65 71.1573 44.7223ZM71.8456 49.0452C71.8456 48.4153 71.8115 47.4194 71.7698 46.8322L71.6941 45.7646L72.3991 45.8285C73.5241 45.9306 74.6667 46.6224 74.9527 47.3746C75.1423 47.8733 75.0738 48.6088 74.7993 49.0233C74.4507 49.5498 73.4356 50.0464 72.5425 50.1274L71.8456 50.1906V49.0452Z" fill="white"/>
<path d="M42.9199 31.0234C42.7081 31.0381 42.261 31.0727 41.9265 31.1002L41.3183 31.1502L41.2592 33.1769C41.2267 34.2916 41.1624 36.1251 41.1162 37.2513C41.049 38.8914 41.0541 39.3129 41.1415 39.3685C41.2016 39.4066 41.4709 39.4384 41.7398 39.4392L42.2288 39.4404L42.1896 38.9055C42.1224 37.9892 41.9614 33.1806 41.9966 33.1454C42.015 33.127 42.2376 33.621 42.4913 34.2433C42.7449 34.8656 43.2127 35.9525 43.5309 36.6586L44.1093 37.9426L44.4134 37.9383C44.5805 37.9359 44.9593 37.9263 45.2548 37.9169L45.7923 37.8998L46.2922 36.7656C46.5672 36.1419 47.0029 35.0923 47.2604 34.4332C47.5179 33.7741 47.7496 33.2156 47.7752 33.1921C47.8008 33.1686 47.7953 34.5648 47.7629 36.2949L47.704 39.4404L48.6287 39.4392C49.1373 39.4384 49.592 39.4095 49.639 39.375C49.6946 39.3341 49.7162 37.8805 49.7008 35.2308L49.677 31.1496L49.2301 31.0952C48.9842 31.0654 48.4991 31.0531 48.1519 31.068L47.5208 31.0951L46.9881 32.5073C46.4386 33.9642 45.8513 35.3813 45.5549 35.9653L45.3856 36.2991L45.0501 35.5455C44.6886 34.7338 43.8299 32.484 43.5228 31.5444C43.4189 31.2266 43.3274 30.9734 43.3195 30.9816C43.3116 30.9899 43.1318 31.0086 42.9199 31.0234Z" fill="white"/>
<path d="M51.5221 31.1883C50.3947 31.3868 50.4181 31.3021 51.1808 32.4259C51.5467 32.9649 52.2314 33.9244 52.7023 34.5578L53.5586 35.7096L53.4994 37.5216C53.4462 39.1503 53.4543 39.3389 53.5794 39.387C53.656 39.4164 54.1556 39.4404 54.6895 39.4404H55.6602L55.6256 38.8199C55.5421 37.3237 55.521 35.5873 55.5858 35.5472C55.7943 35.4183 58.5565 31.4246 58.4859 31.3541C58.4645 31.3327 58.2078 31.2593 57.9154 31.1911L57.3838 31.0671L57.1574 31.4663C56.6295 32.3971 56.0431 33.3722 55.5617 34.1196L55.047 34.9188L54.3345 33.8281C53.9427 33.2281 53.4074 32.3582 53.145 31.8948C52.6032 30.9379 52.7012 30.9805 51.5221 31.1883Z" fill="white"/>
<path d="M52.56 1.79079C54.1661 3.56546 54.0407 7.62925 52.3114 9.83983C51.5361 10.8306 50.8949 12.371 50.8862 13.2623C50.8725 14.6292 51.2551 14.8835 53.3238 14.8835L45.6919 15.0183C47.3376 14.8562 47.9882 14.4253 47.9882 13.4972C47.9882 12.7853 48.7988 11.0078 49.7896 9.54799C51.7689 6.63202 52.0491 4.82208 50.7263 3.49919C49.4041 2.17702 48.2152 2.45297 46.2928 4.52593C45.3281 5.56638 44.1803 6.19538 43.7422 5.92446C42.5605 5.19457 42.7529 4.49351 44.7113 2.37948C46.8513 0.0709053 50.7392 -0.220921 52.56 1.79079Z" fill="white"/>
</svg>
