<svg width="100" height="56" viewBox="0 0 100 56" fill="none" xmlns="http://www.w3.org/2000/svg">
<path fill-rule="evenodd" clip-rule="evenodd" d="M53.4538 14.57L45.822 14.4353C43.6165 14.4353 43.1532 14.8164 41.22 18.2181C40.0383 20.2989 37.8948 23.1674 36.4573 24.5933C33.9592 27.0712 27.0501 30.8907 21.5661 32.826C15.9568 34.8053 4.64596 40.865 2.38927 43.1001C0.494999 44.9756 0 46.0499 0 48.2814C0 51.8084 0.776004 52.3019 3.76187 50.6714C5.36721 49.7945 8.31634 49.2656 12.9623 49.0206C18.6466 48.7209 19.839 48.4543 20.0328 47.4369C20.2259 46.4217 19.5717 46.176 16.2004 45.9959L12.1344 45.7783L23.1794 39.5435C29.2549 36.1152 35.4413 32.6293 36.9271 31.7978C38.4135 30.9671 40.8453 29.6067 42.331 28.7745C43.8175 27.943 46.098 26.6129 47.3992 25.8182L49.7662 24.375L56.4058 28.2925C60.0582 30.4469 65.3159 33.4363 68.0899 34.9343C70.864 36.433 76.1988 39.4859 79.9448 41.7188L86.7559 45.7783L83.007 45.9959C79.8468 46.1796 79.2581 46.4339 79.2581 47.6171C79.2581 48.9104 79.8 49.0206 86.1723 49.0206C92.0115 49.0206 93.4122 49.2527 95.1825 50.5136C98.3111 52.7407 99.8148 52.1196 99.6959 48.6481C99.6145 46.2509 99.0914 45.3416 96.3844 42.8911C94.5254 41.2079 90.4631 38.8086 86.7545 37.2033C66.5775 28.4683 62.0541 25.5595 58.071 18.7585C56.1212 15.4289 55.3827 14.7595 53.4538 14.57ZM50.7547 19.4552C52.1814 19.4321 52.1727 19.3767 50.5371 18.0141C48.7048 16.4873 49.0017 16.3461 52.546 17.0544C54.3473 17.4147 55.1968 18.2209 56.5341 20.8372C59.7541 27.136 64.0615 30.2257 76.7363 35.3285C88.7605 40.169 97.1834 45.2523 96.0961 47.0118C95.8706 47.3771 96.2856 48.1675 97.0191 48.7692C98.899 50.3118 90.1071 45.5491 77.8171 38.3669C72.0709 35.0092 63.4195 30.1918 58.5926 27.6613L49.8152 23.0614L40.9397 27.6606C36.0574 30.1903 25.4166 35.9971 17.2927 40.5645C9.16872 45.1327 2.3972 48.7519 2.24445 48.6078C1.64281 48.0393 4.5242 44.5613 7.20528 42.6187C8.76235 41.4911 14.8299 38.5521 20.6893 36.0879C26.5486 33.6237 32.0772 31.2531 32.975 30.8201C35.4673 29.6161 40.9058 23.9787 42.9666 20.4618C44.9466 17.084 45.6937 16.7727 47.8726 18.4212C48.6421 19.0027 49.9391 19.4682 50.7547 19.4552Z" fill="black"/>
<path d="M44.041 44.8534L40.8405 44.8858L40.918 47.4936C41.0061 50.4564 41.2203 55.707 41.2543 55.7316C41.2667 55.7406 42.993 55.7783 45.0908 55.8153L48.9049 55.8825V55.1423V54.4021L47.2129 54.4622C46.2823 54.4954 45.1543 54.5458 44.706 54.5745L43.8909 54.6266L43.817 53.7518C43.7763 53.2707 43.743 52.4153 43.743 51.8509V50.8247L45.607 50.8964C46.6323 50.9359 47.7421 50.9962 48.0732 51.0305L48.6755 51.0929V50.2887V49.4846L47.2129 49.5366C46.4086 49.5654 45.2988 49.6105 44.7467 49.6369L43.743 49.685V47.8968V46.1086L46.3526 46.1883L48.9622 46.268L48.9238 45.5177L48.8853 44.7674L48.0635 44.7943C47.6114 44.8089 45.8013 44.8356 44.041 44.8534Z" fill="black"/>
<path fill-rule="evenodd" clip-rule="evenodd" d="M32.9604 44.7218C32.7396 44.7464 32.2364 44.7967 31.842 44.8335L31.1251 44.9004V50.3265V55.7527L31.3832 55.8219C31.5252 55.8598 32.1258 55.8917 32.718 55.8925L33.7949 55.8941L33.7392 53.2904L33.6835 50.6866L34.276 51.3231C34.9739 52.073 35.7813 53.4108 36.4284 54.8899C36.684 55.4737 36.9082 55.9697 36.9269 55.9921C36.9743 56.0488 39.3969 55.7673 39.6422 55.6765C39.8177 55.6116 39.7547 55.4436 39.1447 54.3465C38.7606 53.6558 38.0592 52.5045 37.586 51.7878C37.1127 51.0712 36.743 50.4753 36.7644 50.4636C36.7857 50.4519 37.0889 50.307 37.4381 50.1417C38.3127 49.7279 38.7417 49.338 39.0884 48.6423C39.974 46.865 38.7743 45.3589 36.104 44.896C35.301 44.7567 33.5274 44.6586 32.9604 44.7218ZM33.6481 49.2857C33.6479 48.7879 33.6141 47.8001 33.5733 47.0903L33.4989 45.7998H33.9621C35.0043 45.7998 36.2788 46.4988 36.6914 47.2968C36.9462 47.7894 36.9062 48.5646 36.6024 49.0233C36.2538 49.5498 35.2386 50.0464 34.3456 50.1274L33.6487 50.1906L33.6481 49.2857Z" fill="black"/>
<path fill-rule="evenodd" clip-rule="evenodd" d="M21.9484 44.7382C21.5383 44.761 21.1701 44.8155 21.1301 44.8595C21.0901 44.9035 21.0209 47.4108 20.9765 50.4313L20.8955 55.923L22.9419 55.8618C25.1575 55.7954 25.8374 55.6665 27.0757 55.0786C27.9614 54.658 28.9166 53.797 29.3203 53.0554C29.7229 52.3156 29.9742 51.2192 29.9763 50.193C29.983 46.9321 28.181 45.1527 24.4885 44.7744C23.8351 44.7074 23.1641 44.6627 22.9973 44.6748C22.8305 44.687 22.3585 44.7155 21.9484 44.7382ZM23.4779 52.9567C23.5196 51.954 23.5538 49.9291 23.554 48.4567L23.5543 45.7796L24.0418 45.8581C25.2385 46.0507 26.4247 46.8715 26.9365 47.8613C27.2298 48.4284 27.4502 49.6569 27.4525 50.7368C27.4576 53.3175 26.4474 54.5842 24.2724 54.7238L23.4023 54.7796L23.4779 52.9567Z" fill="black"/>
<path d="M53.4531 44.7691C51.265 45.1516 49.7831 46.81 50.189 48.4221C50.4124 49.3092 51.0709 49.8407 53.4637 51.0655C55.8053 52.264 56.3609 52.7168 56.3609 53.4264C56.3609 53.7011 56.2614 53.9372 56.0418 54.183C55.2386 55.0819 53.4386 54.5516 51.5788 52.8682L50.9837 52.3296L50.231 53.2117C49.8172 53.6969 49.4785 54.1504 49.4787 54.2197C49.479 54.3895 50.4349 55.0242 51.1407 55.3231C52.9511 56.0898 55.1409 56.0771 56.4756 55.292C57.636 54.6095 58.4245 53.436 58.422 52.3955C58.4186 50.97 57.6008 50.1176 54.9543 48.7807C53.9299 48.2633 52.9244 47.714 52.7199 47.5603C52.0352 47.0456 52.1125 46.2778 52.8811 45.9566C53.6504 45.6352 54.6152 46.007 56.036 47.172L56.8771 47.8619L57.594 47.1045C57.9884 46.688 58.311 46.2836 58.311 46.206C58.311 46.0037 57.9982 45.7556 57.3055 45.4085C56.2054 44.8572 54.5351 44.58 53.4531 44.7691Z" fill="black"/>
<path d="M62.9888 44.7709C62.3082 44.8856 61.2924 45.3463 60.719 45.8005C59.7265 46.5866 59.3908 48.079 60.0029 48.9854C60.4766 49.6867 61.0127 50.0552 63.1306 51.1346C65.3155 52.2484 65.8817 52.7219 65.8817 53.4358C65.8817 53.992 65.7061 54.2774 65.2453 54.47C64.2221 54.8974 62.8785 54.3809 61.1595 52.8993L60.5095 52.339L59.7407 53.2608C58.996 54.1535 58.9782 54.1896 59.1745 54.4065C59.8246 55.1247 61.6064 55.7783 63.1456 55.8628C64.5088 55.9377 65.5103 55.6746 66.4659 54.9902C67.4992 54.2502 67.9465 53.4578 67.9465 52.367C67.9465 50.9052 67.2035 50.1569 64.2724 48.6658C61.7912 47.4035 61.4485 47.0583 61.9369 46.3128C62.1926 45.9226 62.8382 45.7436 63.4223 45.9008C64.0042 46.0575 65.0687 46.6976 65.8322 47.35L66.4267 47.8579L67.0525 47.2016C68.0339 46.1726 68.0464 46.1172 67.3906 45.6964C66.7003 45.2534 65.8036 44.9411 64.7554 44.7784C63.8608 44.6396 63.7703 44.6393 62.9888 44.7709Z" fill="black"/>
<path fill-rule="evenodd" clip-rule="evenodd" d="M71.1583 44.7223C70.9375 44.7467 70.4259 44.7976 70.0216 44.8354L69.2862 44.9044L69.3651 50.3084C69.4244 54.3698 69.4789 55.7346 69.5842 55.8016C69.6614 55.8505 70.2312 55.8914 70.8508 55.8924L71.977 55.8941L71.9405 53.3243C71.899 50.4076 71.8806 50.4473 72.7491 51.5728C73.3708 52.3789 74.1124 53.6851 74.6647 54.9472C74.9065 55.4995 75.1164 55.9697 75.1315 55.9921C75.1637 56.04 77.5494 55.7886 77.8381 55.7068C78.0159 55.6565 77.9992 55.5757 77.6791 54.9416C77.226 54.0442 76.4731 52.7917 75.6143 51.5071C75.2455 50.9555 74.9437 50.4862 74.9437 50.4644C74.9437 50.4426 75.1451 50.3584 75.3913 50.2771C75.6374 50.1959 76.089 49.9425 76.395 49.7139C77.5809 48.8276 77.9349 47.2496 77.1632 46.289C76.721 45.7388 75.5786 45.1532 74.5422 44.9457C73.6803 44.773 71.8147 44.65 71.1583 44.7223ZM71.8466 49.0452C71.8466 48.4153 71.8125 47.4194 71.7707 46.8322L71.695 45.7646L72.4 45.8285C73.5251 45.9306 74.6677 46.6224 74.9537 47.3746C75.1433 47.8733 75.0748 48.6088 74.8003 49.0233C74.4517 49.5498 73.4365 50.0464 72.5435 50.1274L71.8466 50.1906V49.0452Z" fill="black"/>
<path d="M42.9207 31.0234C42.7088 31.0381 42.2618 31.0727 41.9273 31.1002L41.319 31.1502L41.26 33.1769C41.2274 34.2916 41.1632 36.1251 41.1169 37.2513C41.0497 38.8914 41.0548 39.3129 41.1423 39.3685C41.2024 39.4066 41.4716 39.4384 41.7405 39.4392L42.2295 39.4404L42.1903 38.9055C42.1231 37.9892 41.9621 33.1806 41.9974 33.1454C42.0158 33.127 42.2383 33.621 42.492 34.2433C42.7456 34.8656 43.2135 35.9525 43.5316 36.6586L44.11 37.9426L44.4141 37.9383C44.5813 37.9359 44.96 37.9263 45.2556 37.9169L45.793 37.8998L46.293 36.7656C46.568 36.1419 47.0037 35.0923 47.2611 34.4332C47.5187 33.7741 47.7503 33.2156 47.776 33.1921C47.8016 33.1686 47.7961 34.5648 47.7636 36.2949L47.7048 39.4404L48.6294 39.4392C49.138 39.4384 49.5927 39.4095 49.6398 39.375C49.6953 39.3341 49.717 37.8805 49.7016 35.2308L49.6778 31.1496L49.2308 31.0952C48.985 31.0654 48.4998 31.0531 48.1527 31.068L47.5216 31.0951L46.9888 32.5073C46.4393 33.9642 45.852 35.3813 45.5557 35.9653L45.3864 36.2991L45.0508 35.5455C44.6894 34.7338 43.8306 32.484 43.5235 31.5444C43.4197 31.2266 43.3282 30.9734 43.3202 30.9816C43.3123 30.9899 43.1325 31.0086 42.9207 31.0234Z" fill="black"/>
<path d="M51.5228 31.1883C50.3955 31.3868 50.4188 31.3021 51.1815 32.4259C51.5474 32.9649 52.2321 33.9244 52.703 34.5578L53.5593 35.7096L53.5001 37.5216C53.4469 39.1503 53.455 39.3389 53.5802 39.387C53.6568 39.4164 54.1563 39.4404 54.6902 39.4404H55.661L55.6263 38.8199C55.5428 37.3237 55.5217 35.5873 55.5865 35.5472C55.7951 35.4183 58.5573 31.4246 58.4867 31.3541C58.4653 31.3327 58.2086 31.2593 57.9162 31.1911L57.3846 31.0671L57.1582 31.4663C56.6302 32.3971 56.0438 33.3722 55.5624 34.1196L55.0478 34.9188L54.3353 33.8281C53.9434 33.2281 53.4081 32.3582 53.1457 31.8948C52.604 30.9379 52.7019 30.9805 51.5228 31.1883Z" fill="black"/>
<path d="M52.5583 1.79079C54.1643 3.56546 54.039 7.62925 52.3097 9.83983C51.5344 10.8306 50.8932 12.371 50.8845 13.2623C50.8708 14.6292 51.2534 14.8835 53.3221 14.8835L45.6902 15.0183C47.3359 14.8562 47.9865 14.4253 47.9865 13.4972C47.9865 12.7853 48.7971 11.0078 49.7879 9.54799C51.7672 6.63202 52.0474 4.82208 50.7245 3.49919C49.4024 2.17702 48.2135 2.45297 46.2911 4.52593C45.3264 5.56638 44.1785 6.19538 43.7405 5.92446C42.5588 5.19457 42.7512 4.49351 44.7096 2.37948C46.8495 0.0709053 50.7375 -0.220921 52.5583 1.79079Z" fill="black"/>
</svg>
